<?xml version="1.0" standalone="no"?>
<!DOCTYPE svg PUBLIC "-//W3C//DTD SVG 20010904//EN"
 "http://www.w3.org/TR/2001/REC-SVG-20010904/DTD/svg10.dtd">
<svg version="1.0" xmlns="http://www.w3.org/2000/svg"
 width="260.000000pt" height="260.000000pt" viewBox="0 0 260.000000 260.000000"
 preserveAspectRatio="xMidYMid meet">
<metadata>
Created by potrace 1.11, written by Peter Selinger 2001-2013
</metadata>
<g transform="translate(0.000000,260.000000) scale(0.100000,-0.100000)"
fill="#000000" stroke="none">
<path d="M1588 2455 c-2 -1 -34 -5 -73 -9 -209 -18 -458 -143 -601 -302 -101
-112 -127 -156 -279 -479 -23 -49 -81 -170 -129 -269 -47 -98 -86 -180 -86
-182 0 -2 -47 -101 -105 -220 -58 -119 -105 -217 -105 -219 0 -4 -188 -397
-200 -417 -6 -10 -10 -20 -10 -24 0 -7 314 -158 360 -172 134 -42 300 4 396
111 41 46 65 91 186 347 28 58 51 106 53 108 1 1 38 -21 81 -50 166 -112 343
-169 529 -170 168 -2 259 16 407 78 109 45 211 115 303 210 85 86 86 87 126
149 46 70 55 88 88 169 151 366 53 809 -240 1081 -174 161 -383 246 -636 259
-34 2 -63 3 -65 1z m-74 -352 c-1 -16 -2 -31 -3 -34 -1 -4 -18 -10 -38 -14
-60 -11 -153 -58 -227 -114 -63 -49 -70 -52 -92 -40 -13 7 -24 17 -24 23 0 19
107 112 167 144 62 33 148 60 194 61 22 1 26 -3 23 -26z m439 -55 c79 -42 175
-137 212 -210 16 -31 27 -59 25 -61 -3 -3 -19 -8 -35 -11 -27 -6 -32 -3 -50
31 -28 52 -152 174 -203 198 -43 21 -46 25 -36 63 8 29 15 28 87 -10z m-940
-469 c21 -10 24 -17 22 -64 -4 -92 25 -227 60 -281 12 -19 11 -24 -16 -49 -16
-16 -30 -27 -32 -24 -31 38 -69 127 -84 193 -9 39 -9 195 0 219 7 20 17 21 50
6z m1243 -201 c-14 -130 -63 -231 -151 -321 l-38 -38 -18 31 c-11 17 -19 33
-19 35 0 3 18 28 40 57 50 66 87 144 104 217 12 53 15 56 47 62 19 4 36 7 38
8 2 0 1 -23 -3 -51z m-841 -427 c80 -31 211 -45 268 -30 24 7 30 4 47 -24 11
-18 20 -35 20 -39 0 -14 -86 -30 -160 -30 -84 0 -174 22 -238 59 l-43 24 23
29 c13 16 25 29 28 29 3 1 28 -8 55 -18z"/>
</g>
</svg>
